<svg id="Layer_1" data-name="Layer 1" xmlns="http://www.w3.org/2000/svg" viewBox="0 0 1391.29 300.45"><defs><style>.cls-1{fill:#1078a8;}.cls-2{fill:#4494c2;}.cls-3{fill:#0c649b;}</style></defs><title>text-logo</title><polygon class="cls-1" points="90.73 242.02 55.84 223.04 179.4 205.68 214.29 224.66 90.73 242.02"/><polygon class="cls-2" points="91.14 18.98 90.73 242.02 214.29 224.66 214.2 275.25 34.89 300.45 35.4 26.81 91.14 18.98"/><polygon class="cls-3" points="34.89 300.45 0 281.47 0.51 7.83 35.4 26.81 34.89 300.45"/><polygon class="cls-1" points="35.4 26.81 0.51 7.83 56.25 0 91.14 18.98 35.4 26.81"/><path class="cls-2" d="M1063.26,906,1153,1146h-54.79l-18.16-53.45H990.32L971.49,1146H918.38l90.76-240Zm3,147.23L1036,965.15h-.68l-31.26,88.07Z" transform="translate(-670.35 -873.78)"/><path class="cls-2" d="M1123.1,906h59.17l56.14,94.79,55.8-94.79H1353L1264,1053.89V1146h-52.77v-93.45Z" transform="translate(-670.35 -873.78)"/><path class="cls-2" d="M1370.85,977.08A120.12,120.12,0,0,1,1394,936.91,106.11,106.11,0,0,1,1431.19,910q22-9.75,49.58-9.75,27.9,0,49.75,9.75a106.46,106.46,0,0,1,37,26.89,120,120,0,0,1,23.19,40.17,150,150,0,0,1,8.07,49.92,144.89,144.89,0,0,1-8.07,48.91,116.67,116.67,0,0,1-23.19,39.5,106.63,106.63,0,0,1-37,26.39q-21.86,9.59-49.75,9.58-27.57,0-49.58-9.58a106.28,106.28,0,0,1-37.15-26.39,116.83,116.83,0,0,1-23.19-39.5,144.89,144.89,0,0,1-8.07-48.91A150,150,0,0,1,1370.85,977.08Zm48.24,79.34a79.22,79.22,0,0,0,11.26,25.71,57.57,57.57,0,0,0,20.17,18.32q12.42,6.9,30.25,6.89t30.25-6.89a57.65,57.65,0,0,0,20.17-18.32,79.22,79.22,0,0,0,11.26-25.71A121.89,121.89,0,0,0,1546,1027a131,131,0,0,0-3.53-30.59A80.92,80.92,0,0,0,1531.19,970,57.06,57.06,0,0,0,1511,951.54q-12.43-6.9-30.25-6.9t-30.25,6.9A57,57,0,0,0,1430.35,970a80.92,80.92,0,0,0-11.26,26.39,131,131,0,0,0-3.53,30.59A121.89,121.89,0,0,0,1419.09,1056.42Z" transform="translate(-670.35 -873.78)"/><path class="cls-2" d="M1811.21,1127.68q-27.23,23.7-75.3,23.7-48.75,0-75.47-23.53t-26.72-72.61V906h52.78v149.25a107.83,107.83,0,0,0,1.68,19.16,37.29,37.29,0,0,0,22,28.41q9.57,4.53,25.71,4.53,28.24,0,39-12.6t10.75-39.5V906h52.78v149.25Q1838.44,1104,1811.21,1127.68Z" transform="translate(-670.35 -873.78)"/><path class="cls-2" d="M1865,950.36V906h196.65v44.37h-71.94V1146h-52.78V950.36Z" transform="translate(-670.35 -873.78)"/></svg>